<svg width="48" height="48" viewBox="0 0 48 48" fill="none" xmlns="http://www.w3.org/2000/svg">
<path d="M0 24C0 4.236 4.236 0 24 0C43.764 0 48 4.236 48 24C48 43.764 43.764 48 24 48C4.236 48 0 43.764 0 24Z" fill="#1A6AFC"/>
<path d="M23.1558 27.3184L12.0518 28.2634L27.0274 6.8782C27.137 6.69005 27.4606 6.76469 27.3998 6.99271C24.4553 21.0576 25.7547 15.033 23.1558 27.3184Z" fill="white"/>
<path d="M25.046 20.231L35.9138 19.5222L20.8085 41.2189C20.699 41.4071 20.3754 41.3324 20.4362 41.1044C23.5102 26.9643 22.2109 33.107 25.046 20.231Z" fill="white"/>
<path d="M17.3675 20.7035L12.0518 28.2634L30.5979 27.0824L35.9138 19.5222L17.3675 20.7035Z" fill="white"/>
</svg>
